<svg width="190" height="37" viewBox="0 0 190 37" fill="none" xmlns="http://www.w3.org/2000/svg">
<path fill-rule="evenodd" clip-rule="evenodd" d="M14.927 9.53301C14.927 7.0047 15.938 4.57994 17.7375 2.79215C19.5371 1.00437 21.9779 0 24.5229 0H31.9863V7.41456C31.9863 9.94288 30.9754 12.3676 29.1758 14.1554C27.3762 15.9432 24.9354 16.9476 22.3904 16.9476H17.0594V31.7767H14.927V23.3029H9.5959C7.05091 23.3029 4.61016 22.2985 2.81058 20.5108C1.01099 18.723 0 16.2982 0 13.7699V6.35534H7.46348C10.4787 6.35534 13.1677 7.73657 14.927 9.89527V9.53301ZM17.3707 13.02L23.768 6.66463L25.2777 8.1645L18.8805 14.5198L17.3707 13.02ZM13.1059 20.8752L6.7086 14.5198L8.21836 13.02L14.6156 19.3753L13.1059 20.8752Z" fill="#005844"/>
<path d="M20.7511 24.1702C21.6574 24.1702 22.3705 23.9252 22.8902 23.4353C23.4233 22.9454 23.6899 22.2702 23.6899 21.4096C23.6899 20.1914 23.3767 19.1984 22.7503 18.4305C22.1372 17.6493 21.2376 17.2587 20.0514 17.2587C19.1452 17.2587 18.3188 17.5169 17.5725 18.0333V30.1481L20.6712 31.0021L20.2713 31.7966H13.1944V31.1809L15.0736 29.7112V17.6361L12.9945 16.9608L13.3943 16.1664H15.7133C17.0061 16.1664 18.2789 16.1267 19.5317 16.0472C20.4646 15.9943 21.151 15.9678 21.5908 15.9678C22.5237 15.9678 23.35 16.1664 24.0697 16.5636C24.8027 16.9476 25.3692 17.4838 25.769 18.1723C26.1688 18.8608 26.3687 19.6221 26.3687 20.4563C26.3687 21.3831 26.0289 22.2569 25.3492 23.0778C24.6695 23.8987 23.8032 24.5409 22.7503 25.0043C21.6974 25.4677 20.6645 25.6729 19.6516 25.62L18.712 24.9447L19.1118 24.1503H20.7312L20.7511 24.1702Z" fill="#005844"/>
<path d="M33.8515 31.7767H28.2739V31.161L30.0531 29.7708V17.5566L28.2739 16.3253V15.7096L31.6924 14.4385H32.4521V30.2872L34.2513 30.9823L33.8515 31.7767Z" fill="#005844"/>
<path d="M46.4689 31.7767H42.6705V30.0488L40.4115 31.8164C40.1449 31.9223 39.8118 31.9753 39.4119 31.9753C38.2658 31.9753 37.4328 31.6906 36.913 31.1213C36.4065 30.552 36.1533 29.8701 36.1533 29.0757C36.1533 28.599 36.3266 28.129 36.6731 27.6656C37.0196 27.2022 37.5127 26.7653 38.1525 26.3548H42.6705V25.0837C42.6705 24.2231 42.4373 23.6141 41.9708 23.2566C41.5177 22.8991 40.8913 22.7203 40.0916 22.7203C39.2653 22.7203 38.2524 23.2169 37.0529 24.2099L36.4532 23.4552L39.332 21.1911C39.8651 21.0852 40.5048 21.0322 41.2511 21.0322C42.464 21.0322 43.4036 21.3301 44.0699 21.9259C44.7363 22.5085 45.0695 23.3625 45.0695 24.4879V30.2872L46.8687 30.9823L46.4689 31.7767ZM40.0517 30.2872C40.8646 30.2872 41.7376 29.9164 42.6705 29.175V27.1691H39.132C38.9588 27.3809 38.8322 27.5928 38.7522 27.8046C38.6856 28.0165 38.6523 28.2482 38.6523 28.4997C38.6523 28.9896 38.7789 29.4133 39.0321 29.7708C39.2853 30.115 39.6252 30.2872 40.0517 30.2872Z" fill="#005844"/>
<path d="M60.8447 31.7966H57.0463V25.1036C57.0463 24.3754 56.933 23.8656 56.7064 23.5743C56.4799 23.2831 56.0734 23.1374 55.4869 23.1374C55.0471 23.1374 54.6073 23.2169 54.1675 23.3757C53.741 23.5346 53.2346 23.8391 52.6482 24.2893V30.307L54.4474 31.0021L54.0476 31.7966H48.4699V31.1809L50.2492 29.7907V24.1702L48.4699 23.1374V22.5217L51.8885 20.8535L52.5482 23.4353L55.387 21.1911C55.6669 21.0852 56.0334 21.0322 56.4865 21.0322C57.3928 21.0322 58.1125 21.3103 58.6456 21.8663C59.1787 22.4092 59.4453 23.1507 59.4453 24.0907V30.2872L61.2445 31.0021L60.8447 31.7966Z" fill="#005844"/>
<path d="M68.5364 31.8164C68.2298 31.9223 67.8567 31.9753 67.4168 31.9753C66.3107 31.9753 65.4977 31.6906 64.9779 31.1213C64.4714 30.5387 64.2182 29.645 64.2182 28.4401V22.6409H62.0591V21.8266L65.8575 17.4375H66.6172V21.8266H70.2157V22.6409H66.6172V28.6785C66.6172 29.7509 67.137 30.2872 68.1765 30.2872C68.4564 30.2872 68.723 30.2276 68.9762 30.1084C69.2427 29.9893 69.5693 29.7774 69.9558 29.4729L70.5555 30.2276L68.5364 31.8164Z" fill="#005844"/>
<path d="M83.457 21.0322C84.0035 21.0322 84.6365 21.1116 85.3562 21.2705C86.0892 21.4162 86.6157 21.5817 86.9355 21.767V24.8256H86.1759C85.6561 24.1635 85.0564 23.6472 84.3766 23.2764C83.7103 22.8925 83.0172 22.7005 82.2975 22.7005C81.6845 22.7005 81.218 22.9719 80.8981 23.5148C80.5916 24.0576 80.4383 24.852 80.4383 25.898C80.4383 27.1426 80.7115 28.1886 81.258 29.036C81.8044 29.8701 82.5841 30.2872 83.597 30.2872C84.3567 30.2872 85.4362 29.7443 86.8356 28.6586L87.4353 29.4133L84.3567 31.8164C83.8235 31.9223 83.1838 31.9753 82.4375 31.9753C81.5578 31.9753 80.7649 31.7502 80.0585 31.3001C79.3654 30.8366 78.819 30.2143 78.4192 29.4332C78.0327 28.652 77.8394 27.7914 77.8394 26.8513C77.8394 25.8318 78.126 24.8719 78.6991 23.9715C79.2855 23.0712 80.0185 22.3562 80.8981 21.8266C81.7777 21.297 82.6307 21.0322 83.457 21.0322Z" fill="#005844"/>
<path d="M100.216 31.7767H96.4171V30.0488L94.1581 31.8164C93.8915 31.9223 93.5583 31.9753 93.1585 31.9753C92.0123 31.9753 91.1794 31.6906 90.6596 31.1213C90.1531 30.552 89.8999 29.8701 89.8999 29.0757C89.8999 28.599 90.0732 28.129 90.4197 27.6656C90.7662 27.2022 91.2593 26.7653 91.8991 26.3548H96.4171V25.0837C96.4171 24.2231 96.1839 23.6141 95.7174 23.2566C95.2643 22.8991 94.6379 22.7203 93.8382 22.7203C93.0119 22.7203 91.999 23.2169 90.7995 24.2099L90.1998 23.4552L93.0786 21.1911C93.6117 21.0852 94.2514 21.0322 94.9977 21.0322C96.2105 21.0322 97.1502 21.3301 97.8165 21.9259C98.4829 22.5085 98.8161 23.3625 98.8161 24.4879V30.2872L100.615 30.9823L100.216 31.7767ZM93.7982 30.2872C94.6112 30.2872 95.4842 29.9164 96.4171 29.175V27.1691H92.8786C92.7054 27.3809 92.5788 27.5928 92.4988 27.8046C92.4322 28.0165 92.3988 28.2482 92.3988 28.4997C92.3988 28.9896 92.5255 29.4133 92.7787 29.7708C93.0319 30.115 93.3718 30.2872 93.7982 30.2872Z" fill="#005844"/>
<path d="M109.433 21.0521C109.873 21.0521 110.26 21.1712 110.593 21.4096C110.926 21.6479 111.186 21.9789 111.373 22.4026L110.053 24.051H109.294C109.24 23.72 109.14 23.4883 108.994 23.3559C108.86 23.2102 108.674 23.1374 108.434 23.1374C108.141 23.1374 107.827 23.2169 107.494 23.3757C107.174 23.5214 106.808 23.806 106.395 24.2297V30.1481L109.194 31.0021L108.794 31.7966H102.217V31.1809L103.996 29.7907V24.1702L102.217 23.1374V22.5217L105.635 20.8535L106.255 23.2963L108.334 21.1911C108.614 21.0852 108.98 21.0322 109.433 21.0322V21.0521Z" fill="#005844"/>
<path d="M119.4 31.8164C118.867 31.9223 118.227 31.9753 117.481 31.9753C116.601 31.9753 115.808 31.7502 115.102 31.3001C114.409 30.8366 113.863 30.2143 113.463 29.4332C113.076 28.652 112.883 27.7914 112.883 26.8513C112.883 25.8318 113.196 24.8785 113.823 23.9914C114.449 23.0911 115.229 22.3761 116.162 21.8465C117.108 21.3036 118.021 21.0322 118.9 21.0322C120.167 21.0322 121.146 21.5287 121.839 22.5217C122.546 23.5148 122.899 24.8255 122.899 26.4541H115.502C115.582 27.5795 115.888 28.4997 116.422 29.2147C116.968 29.9297 117.708 30.2872 118.641 30.2872C119.507 30.2872 120.74 29.6185 122.339 28.2813L122.939 29.036L119.4 31.8164ZM117.741 22.7005C116.302 22.7005 115.549 23.6803 115.482 25.6398H120.16C120.04 24.9249 119.913 24.382 119.78 24.0113C119.66 23.6273 119.44 23.3162 119.12 23.0778C118.814 22.8263 118.354 22.7005 117.741 22.7005Z" fill="#005844"/>
<path d="M139.769 22.6012C140.142 23.1308 140.329 23.7266 140.329 24.3886C140.329 24.9712 140.162 25.5471 139.829 26.1165C139.496 26.6726 139.049 27.1625 138.49 27.5862C137.93 28.0098 137.317 28.3276 136.65 28.5395C136.291 28.8969 136.111 29.2743 136.111 29.6715C136.111 29.8966 136.284 30.1084 136.63 30.307C136.99 30.4924 137.517 30.7175 138.21 30.9823C139.156 31.353 139.882 31.6906 140.389 31.9952C140.909 32.3129 141.168 32.6969 141.168 33.1471C141.168 33.5443 140.909 34.054 140.389 34.6763C139.882 35.2986 139.249 35.8415 138.49 36.3049C137.73 36.7683 136.997 37 136.291 37C135.544 37 134.658 36.8742 133.632 36.6227C132.619 36.3711 131.772 36.1195 131.093 35.868V32.8094H131.852C132.599 33.723 133.358 34.4181 134.132 34.8948C134.905 35.3714 135.777 35.6098 136.75 35.6098C137.11 35.6098 137.437 35.5369 137.73 35.3913C138.036 35.2457 138.27 35.0603 138.43 34.8352C138.603 34.6234 138.69 34.4181 138.69 34.2195C138.69 33.862 138.483 33.5509 138.07 33.2861C137.657 33.0345 137.01 32.7234 136.131 32.3527C135.291 32.0084 134.665 31.7105 134.251 31.4589C133.852 31.2074 133.652 30.9161 133.652 30.5851C133.652 30.2673 133.865 29.9429 134.291 29.6119C134.718 29.2809 135.224 28.9896 135.811 28.7381C135.598 28.7778 135.378 28.7976 135.151 28.7976C134.445 28.7976 133.798 28.6454 133.212 28.3408C132.625 28.0231 132.159 27.606 131.812 27.0896C131.479 26.5733 131.313 26.0106 131.313 25.4015C131.313 24.6733 131.566 23.9715 132.072 23.2963C132.579 22.621 133.232 22.0782 134.032 21.6677C134.845 21.244 135.671 21.0322 136.51 21.0322C137.443 21.0322 138.263 21.297 138.969 21.8266H142.108L142.128 22.6012H139.769ZM136.311 27.0896C136.91 27.0896 137.363 26.944 137.67 26.6527C137.99 26.3482 138.15 25.9046 138.15 25.3221C138.15 24.5276 137.89 23.8855 137.37 23.3956C136.864 22.9057 136.191 22.6608 135.351 22.6608C134.765 22.6608 134.311 22.8064 133.992 23.0977C133.685 23.3757 133.532 23.806 133.532 24.3886C133.532 25.1963 133.785 25.8517 134.291 26.3548C134.811 26.8447 135.484 27.0896 136.311 27.0896Z" fill="#005844"/>
<path d="M155.575 31.7767H151.777V29.7112L149.238 31.8164C148.958 31.9223 148.592 31.9753 148.138 31.9753C147.232 31.9753 146.513 31.7039 145.979 31.161C145.446 30.6049 145.18 29.8569 145.18 28.9168V24.1702L143.401 23.1374V22.5217L146.819 20.8535H147.579V27.9238C147.579 28.652 147.692 29.1617 147.919 29.453C148.145 29.7443 148.552 29.89 149.138 29.89C149.551 29.89 149.958 29.8171 150.358 29.6715C150.757 29.5126 151.23 29.2081 151.777 28.7579V24.1702L149.998 23.1374V22.5217L153.416 20.8535H154.176V30.2872L155.975 30.9823L155.575 31.7767Z" fill="#005844"/>
<path d="M163.356 31.7767H157.779V31.161L159.558 29.7708V23.9715L157.779 22.7402V22.1245L161.197 20.8535H161.957V30.2872L163.756 30.9823L163.356 31.7767ZM160.678 14.8953C161.077 14.8953 161.404 15.041 161.657 15.3323C161.924 15.6235 162.057 15.9877 162.057 16.4246C162.057 16.7291 161.964 17.0204 161.777 17.2984C161.59 17.5632 161.357 17.7751 161.077 17.934C160.797 18.0929 160.524 18.1723 160.258 18.1723C159.858 18.1723 159.525 18.0267 159.258 17.7354C159.005 17.4441 158.878 17.08 158.878 16.643C158.878 16.3385 158.972 16.0539 159.158 15.789C159.345 15.511 159.578 15.2925 159.858 15.1337C160.138 14.9748 160.411 14.8953 160.678 14.8953Z" fill="#005844"/>
<path d="M177.624 31.7767H173.825V30.3468L171.966 31.8164C171.54 31.9223 171.027 31.9753 170.427 31.9753C169.547 31.9753 168.754 31.7502 168.048 31.3001C167.355 30.8366 166.808 30.2143 166.409 29.4332C166.022 28.652 165.829 27.7914 165.829 26.8513C165.829 25.8318 166.142 24.8785 166.768 23.9914C167.395 23.0911 168.174 22.3761 169.107 21.8465C170.054 21.3036 170.967 21.0322 171.846 21.0322C172.579 21.0322 173.246 21.2374 173.845 21.6479V17.5566L172.066 16.3253V15.7096L175.485 14.4385H176.244V30.2872L178.024 30.9823L177.624 31.7767ZM171.446 30.2872C171.846 30.2872 172.226 30.2342 172.586 30.1283C172.959 30.0091 173.372 29.7907 173.825 29.4729V24.9447C173.745 24.2827 173.432 23.7465 172.886 23.336C172.353 22.9123 171.62 22.7005 170.687 22.7005C169.181 22.7005 168.428 23.7663 168.428 25.898C168.428 27.1426 168.688 28.1886 169.207 29.036C169.727 29.8701 170.473 30.2872 171.446 30.2872Z" fill="#005844"/>
<path d="M186.462 31.8164C185.928 31.9223 185.289 31.9753 184.542 31.9753C183.663 31.9753 182.87 31.7502 182.163 31.3001C181.47 30.8366 180.924 30.2143 180.524 29.4332C180.138 28.652 179.944 27.7914 179.944 26.8513C179.944 25.8318 180.257 24.8785 180.884 23.9914C181.51 23.0911 182.29 22.3761 183.223 21.8465C184.169 21.3036 185.082 21.0322 185.962 21.0322C187.228 21.0322 188.207 21.5287 188.9 22.5217C189.607 23.5148 189.96 24.8255 189.96 26.4541H182.563C182.643 27.5795 182.95 28.4997 183.483 29.2147C184.029 29.9297 184.769 30.2872 185.702 30.2872C186.568 30.2872 187.801 29.6185 189.4 28.2813L190 29.036L186.462 31.8164ZM184.802 22.7005C183.363 22.7005 182.61 23.6803 182.543 25.6398H187.221C187.101 24.9249 186.975 24.382 186.841 24.0113C186.721 23.6273 186.501 23.3162 186.182 23.0778C185.875 22.8263 185.415 22.7005 184.802 22.7005Z" fill="#005844"/>
</svg>
