<?xml version="1.0" standalone="no"?>
<!DOCTYPE svg PUBLIC "-//W3C//DTD SVG 20010904//EN"
 "http://www.w3.org/TR/2001/REC-SVG-20010904/DTD/svg10.dtd">
<svg version="1.0" xmlns="http://www.w3.org/2000/svg"
 width="204.000000pt" height="204.000000pt" viewBox="0 0 204.000000 204.000000"
 preserveAspectRatio="xMidYMid meet">
<metadata>
Created by potrace 1.14, written by Peter Selinger 2001-2017
</metadata>
<g transform="translate(0.000000,204.000000) scale(0.100000,-0.100000)"
fill="#000000" stroke="none">
<path d="M1706 1949 c-47 -35 -64 -40 -281 -83 -93 -19 -195 -44 -226 -55 -78
-29 -141 -98 -159 -170 -17 -74 -9 -195 17 -246 21 -40 21 -41 3 -65 -11 -14
-29 -52 -41 -85 -12 -33 -25 -63 -29 -68 -3 -4 -21 8 -39 27 l-32 33 17 52
c25 78 16 183 -23 252 -42 76 -110 109 -306 149 -176 36 -202 46 -261 100
l-45 41 -16 -53 c-26 -82 -31 -240 -11 -331 46 -206 179 -344 350 -362 80 -9
162 13 210 55 l34 30 31 -35 c58 -66 71 -103 63 -181 l-7 -69 -243 -5 c-201
-4 -244 -8 -252 -20 -5 -8 -10 -40 -10 -71 0 -55 18 -89 48 -89 15 0 17 -9 52
-210 27 -157 63 -347 76 -408 l4 -22 392 2 392 3 32 175 c18 96 43 231 54 300
26 151 28 160 44 160 31 0 47 36 44 101 -4 89 -2 89 -280 89 l-228 0 0 23 c1
112 22 273 41 317 12 28 25 49 28 47 82 -45 133 -62 197 -65 136 -8 262 44
354 145 59 65 89 120 121 223 30 95 32 255 6 343 -17 54 -19 57 -50 56 -19 0
-48 -12 -71 -30z"/>
</g>
</svg>
